<svg xmlns="http://www.w3.org/2000/svg" xmlns:xlink="http://www.w3.org/1999/xlink" width="500" zoomAndPan="magnify" viewBox="0 0 375 374.999991" height="500" preserveAspectRatio="xMidYMid meet" version="1.0"><defs><clipPath id="7ac05b9d90"><path d="M 11.167969 11.167969 L 363.667969 11.167969 L 363.667969 363.667969 L 11.167969 363.667969 Z M 11.167969 11.167969 " clip-rule="nonzero"/></clipPath><clipPath id="4d3679a2e5"><path d="M 117.160156 91.308594 L 257.964844 91.308594 L 257.964844 209.488281 L 117.160156 209.488281 Z M 117.160156 91.308594 " clip-rule="nonzero"/></clipPath><clipPath id="dc91920431"><path d="M 134.410156 91.308594 L 240.589844 91.308594 C 250.117188 91.308594 257.839844 99.03125 257.839844 108.558594 L 257.839844 192.238281 C 257.839844 201.765625 250.117188 209.488281 240.589844 209.488281 L 134.410156 209.488281 C 124.882812 209.488281 117.160156 201.765625 117.160156 192.238281 L 117.160156 108.558594 C 117.160156 99.03125 124.882812 91.308594 134.410156 91.308594 Z M 134.410156 91.308594 " clip-rule="nonzero"/></clipPath><clipPath id="f3fd568104"><path d="M 0.160156 0.308594 L 140.964844 0.308594 L 140.964844 118.488281 L 0.160156 118.488281 Z M 0.160156 0.308594 " clip-rule="nonzero"/></clipPath><clipPath id="12102e420e"><path d="M 17.410156 0.308594 L 123.589844 0.308594 C 133.117188 0.308594 140.839844 8.03125 140.839844 17.558594 L 140.839844 101.238281 C 140.839844 110.765625 133.117188 118.488281 123.589844 118.488281 L 17.410156 118.488281 C 7.882812 118.488281 0.160156 110.765625 0.160156 101.238281 L 0.160156 17.558594 C 0.160156 8.03125 7.882812 0.308594 17.410156 0.308594 Z M 17.410156 0.308594 " clip-rule="nonzero"/></clipPath><clipPath id="133b662cb4"><rect x="0" width="141" y="0" height="119"/></clipPath><clipPath id="afa6e204d4"><path d="M 117.164062 91.308594 L 258 91.308594 L 258 209.808594 L 117.164062 209.808594 Z M 117.164062 91.308594 " clip-rule="nonzero"/></clipPath><clipPath id="c900555f0e"><path d="M 134.414062 91.308594 L 240.582031 91.308594 C 250.109375 91.308594 257.832031 99.03125 257.832031 108.558594 L 257.832031 192.230469 C 257.832031 201.757812 250.109375 209.480469 240.582031 209.480469 L 134.414062 209.480469 C 124.886719 209.480469 117.164062 201.757812 117.164062 192.230469 L 117.164062 108.558594 C 117.164062 99.03125 124.886719 91.308594 134.414062 91.308594 Z M 134.414062 91.308594 " clip-rule="nonzero"/></clipPath><clipPath id="93729ffe4b"><path d="M 116.972656 220.824219 L 184 220.824219 L 184 283.691406 L 116.972656 283.691406 Z M 116.972656 220.824219 " clip-rule="nonzero"/></clipPath><clipPath id="df884d8dfa"><path d="M 134.222656 220.824219 L 166.550781 220.824219 C 176.078125 220.824219 183.800781 228.546875 183.800781 238.074219 L 183.800781 266.441406 C 183.800781 275.96875 176.078125 283.691406 166.550781 283.691406 L 134.222656 283.691406 C 124.695312 283.691406 116.972656 275.96875 116.972656 266.441406 L 116.972656 238.074219 C 116.972656 228.546875 124.695312 220.824219 134.222656 220.824219 Z M 134.222656 220.824219 " clip-rule="nonzero"/></clipPath><clipPath id="2caa76a0ff"><path d="M 0.972656 0.824219 L 67.839844 0.824219 L 67.839844 63.691406 L 0.972656 63.691406 Z M 0.972656 0.824219 " clip-rule="nonzero"/></clipPath><clipPath id="de49ce9dad"><path d="M 18.222656 0.824219 L 50.550781 0.824219 C 60.078125 0.824219 67.800781 8.546875 67.800781 18.074219 L 67.800781 46.441406 C 67.800781 55.96875 60.078125 63.691406 50.550781 63.691406 L 18.222656 63.691406 C 8.695312 63.691406 0.972656 55.96875 0.972656 46.441406 L 0.972656 18.074219 C 0.972656 8.546875 8.695312 0.824219 18.222656 0.824219 Z M 18.222656 0.824219 " clip-rule="nonzero"/></clipPath><clipPath id="335825d6bc"><rect x="0" width="68" y="0" height="64"/></clipPath><clipPath id="f54a4ea14a"><path d="M 116.976562 220.824219 L 183.722656 220.824219 L 183.722656 283.824219 L 116.976562 283.824219 Z M 116.976562 220.824219 " clip-rule="nonzero"/></clipPath><clipPath id="26cf2a9601"><path d="M 134.222656 220.824219 L 166.546875 220.824219 C 176.070312 220.824219 183.792969 228.546875 183.792969 238.074219 L 183.792969 266.4375 C 183.792969 275.960938 176.070312 283.683594 166.546875 283.683594 L 134.222656 283.683594 C 124.699219 283.683594 116.976562 275.960938 116.976562 266.4375 L 116.976562 238.074219 C 116.976562 228.546875 124.699219 220.824219 134.222656 220.824219 Z M 134.222656 220.824219 " clip-rule="nonzero"/></clipPath><clipPath id="bfea4ca7f6"><path d="M 30.113281 91.308594 L 108.917969 91.308594 L 108.917969 283.699219 L 30.113281 283.699219 Z M 30.113281 91.308594 " clip-rule="nonzero"/></clipPath><clipPath id="c4665fa44d"><path d="M 47.363281 91.308594 L 91.667969 91.308594 C 101.195312 91.308594 108.917969 99.03125 108.917969 108.558594 L 108.917969 266.441406 C 108.917969 275.96875 101.195312 283.691406 91.667969 283.691406 L 47.363281 283.691406 C 37.835938 283.691406 30.113281 275.96875 30.113281 266.441406 L 30.113281 108.558594 C 30.113281 99.03125 37.835938 91.308594 47.363281 91.308594 Z M 47.363281 91.308594 " clip-rule="nonzero"/></clipPath><clipPath id="b46a60500d"><path d="M 0.113281 0.308594 L 78.917969 0.308594 L 78.917969 192.699219 L 0.113281 192.699219 Z M 0.113281 0.308594 " clip-rule="nonzero"/></clipPath><clipPath id="2893437c75"><path d="M 17.363281 0.308594 L 61.667969 0.308594 C 71.195312 0.308594 78.917969 8.03125 78.917969 17.558594 L 78.917969 175.441406 C 78.917969 184.96875 71.195312 192.691406 61.667969 192.691406 L 17.363281 192.691406 C 7.835938 192.691406 0.113281 184.96875 0.113281 175.441406 L 0.113281 17.558594 C 0.113281 8.03125 7.835938 0.308594 17.363281 0.308594 Z M 17.363281 0.308594 " clip-rule="nonzero"/></clipPath><clipPath id="4a4c5fc595"><rect x="0" width="79" y="0" height="193"/></clipPath><clipPath id="d31d7c1513"><path d="M 30.113281 91.3125 L 108.863281 91.3125 L 108.863281 283.828125 L 30.113281 283.828125 Z M 30.113281 91.3125 " clip-rule="nonzero"/></clipPath><clipPath id="7ac6eaadf8"><path d="M 47.363281 91.3125 L 91.660156 91.3125 C 101.1875 91.3125 108.910156 99.035156 108.910156 108.5625 L 108.910156 266.429688 C 108.910156 275.957031 101.1875 283.679688 91.660156 283.679688 L 47.363281 283.679688 C 37.835938 283.679688 30.113281 275.957031 30.113281 266.429688 L 30.113281 108.5625 C 30.113281 99.035156 37.835938 91.3125 47.363281 91.3125 Z M 47.363281 91.3125 " clip-rule="nonzero"/></clipPath><clipPath id="273539bb9c"><path d="M 266.082031 91.308594 L 344.886719 91.308594 L 344.886719 283.699219 L 266.082031 283.699219 Z M 266.082031 91.308594 " clip-rule="nonzero"/></clipPath><clipPath id="adb97e270b"><path d="M 283.332031 91.308594 L 327.636719 91.308594 C 337.164062 91.308594 344.886719 99.03125 344.886719 108.558594 L 344.886719 266.441406 C 344.886719 275.96875 337.164062 283.691406 327.636719 283.691406 L 283.332031 283.691406 C 273.804688 283.691406 266.082031 275.96875 266.082031 266.441406 L 266.082031 108.558594 C 266.082031 99.03125 273.804688 91.308594 283.332031 91.308594 Z M 283.332031 91.308594 " clip-rule="nonzero"/></clipPath><clipPath id="f2110fc500"><path d="M 0.0820312 0.308594 L 78.886719 0.308594 L 78.886719 192.699219 L 0.0820312 192.699219 Z M 0.0820312 0.308594 " clip-rule="nonzero"/></clipPath><clipPath id="7f60b02989"><path d="M 17.332031 0.308594 L 61.636719 0.308594 C 71.164062 0.308594 78.886719 8.03125 78.886719 17.558594 L 78.886719 175.441406 C 78.886719 184.96875 71.164062 192.691406 61.636719 192.691406 L 17.332031 192.691406 C 7.804688 192.691406 0.0820312 184.96875 0.0820312 175.441406 L 0.0820312 17.558594 C 0.0820312 8.03125 7.804688 0.308594 17.332031 0.308594 Z M 17.332031 0.308594 " clip-rule="nonzero"/></clipPath><clipPath id="135731b7fc"><rect x="0" width="79" y="0" height="193"/></clipPath><clipPath id="bd00433b54"><path d="M 266.082031 91.3125 L 344.832031 91.3125 L 344.832031 283.828125 L 266.082031 283.828125 Z M 266.082031 91.3125 " clip-rule="nonzero"/></clipPath><clipPath id="ae66b5fc59"><path d="M 283.332031 91.3125 L 327.632812 91.3125 C 337.15625 91.3125 344.878906 99.035156 344.878906 108.5625 L 344.878906 266.429688 C 344.878906 275.957031 337.15625 283.679688 327.632812 283.679688 L 283.332031 283.679688 C 273.804688 283.679688 266.082031 275.957031 266.082031 266.429688 L 266.082031 108.5625 C 266.082031 99.035156 273.804688 91.3125 283.332031 91.3125 Z M 283.332031 91.3125 " clip-rule="nonzero"/></clipPath><clipPath id="79618fcc3f"><path d="M 191.855469 220.824219 L 258.898438 220.824219 L 258.898438 283.691406 L 191.855469 283.691406 Z M 191.855469 220.824219 " clip-rule="nonzero"/></clipPath><clipPath id="c9e2698e7e"><path d="M 209.105469 220.824219 L 241.433594 220.824219 C 250.960938 220.824219 258.683594 228.546875 258.683594 238.074219 L 258.683594 266.441406 C 258.683594 275.96875 250.960938 283.691406 241.433594 283.691406 L 209.105469 283.691406 C 199.578125 283.691406 191.855469 275.96875 191.855469 266.441406 L 191.855469 238.074219 C 191.855469 228.546875 199.578125 220.824219 209.105469 220.824219 Z M 209.105469 220.824219 " clip-rule="nonzero"/></clipPath><clipPath id="2a8c9d61ea"><path d="M 0.855469 0.824219 L 67.71875 0.824219 L 67.71875 63.691406 L 0.855469 63.691406 Z M 0.855469 0.824219 " clip-rule="nonzero"/></clipPath><clipPath id="4cbc2b8805"><path d="M 18.105469 0.824219 L 50.433594 0.824219 C 59.960938 0.824219 67.683594 8.546875 67.683594 18.074219 L 67.683594 46.441406 C 67.683594 55.96875 59.960938 63.691406 50.433594 63.691406 L 18.105469 63.691406 C 8.578125 63.691406 0.855469 55.96875 0.855469 46.441406 L 0.855469 18.074219 C 0.855469 8.546875 8.578125 0.824219 18.105469 0.824219 Z M 18.105469 0.824219 " clip-rule="nonzero"/></clipPath><clipPath id="7672b67685"><rect x="0" width="68" y="0" height="64"/></clipPath><clipPath id="2e7746977a"><path d="M 191.859375 220.824219 L 258.605469 220.824219 L 258.605469 283.824219 L 191.859375 283.824219 Z M 191.859375 220.824219 " clip-rule="nonzero"/></clipPath><clipPath id="664e46c95f"><path d="M 209.105469 220.824219 L 241.429688 220.824219 C 250.953125 220.824219 258.675781 228.546875 258.675781 238.074219 L 258.675781 266.4375 C 258.675781 275.960938 250.953125 283.683594 241.429688 283.683594 L 209.105469 283.683594 C 199.578125 283.683594 191.859375 275.960938 191.859375 266.4375 L 191.859375 238.074219 C 191.859375 228.546875 199.578125 220.824219 209.105469 220.824219 Z M 209.105469 220.824219 " clip-rule="nonzero"/></clipPath></defs><g clip-path="url(#7ac05b9d90)"><path fill="#16161e" d="M 99.375 11.125 C 50.6875 11.125 11.210938 50.597656 11.210938 99.289062 L 11.210938 275.621094 C 11.210938 324.3125 50.6875 363.789062 99.375 363.789062 L 275.707031 363.789062 C 324.398438 363.789062 363.875 324.3125 363.875 275.621094 L 363.875 99.289062 C 363.875 50.597656 324.398438 11.125 275.707031 11.125 Z M 99.375 11.125 " fill-opacity="1" fill-rule="nonzero"/></g><g clip-path="url(#4d3679a2e5)"><g clip-path="url(#dc91920431)"><g transform="matrix(1, 0, 0, 1, 117, 91)"><g clip-path="url(#133b662cb4)"><g clip-path="url(#f3fd568104)"><g clip-path="url(#12102e420e)"><path fill="#2d3f50" d="M 0.160156 0.308594 L 140.964844 0.308594 L 140.964844 118.488281 L 0.160156 118.488281 Z M 0.160156 0.308594 " fill-opacity="1" fill-rule="nonzero"/></g></g></g></g></g></g><g clip-path="url(#afa6e204d4)"><g clip-path="url(#c900555f0e)"><path stroke-linecap="butt" transform="matrix(0.75, 0, 0, 0.75, 117.161474, 91.308356)" fill="none" stroke-linejoin="miter" d="M 23.003453 0.000316461 L 164.560754 0.000316461 C 177.26388 0.000316461 187.560756 10.297192 187.560756 23.000318 L 187.560756 134.562825 C 187.560756 147.265951 177.26388 157.562827 164.560754 157.562827 L 23.003453 157.562827 C 10.300328 157.562827 0.00345186 147.265951 0.00345186 134.562825 L 0.00345186 23.000318 C 0.00345186 10.297192 10.300328 0.000316461 23.003453 0.000316461 Z M 23.003453 0.000316461 " stroke="#00f2ff" stroke-width="8" stroke-opacity="1" stroke-miterlimit="4"/></g></g><g clip-path="url(#93729ffe4b)"><g clip-path="url(#df884d8dfa)"><g transform="matrix(1, 0, 0, 1, 116, 220)"><g clip-path="url(#335825d6bc)"><g clip-path="url(#2caa76a0ff)"><g clip-path="url(#de49ce9dad)"><path fill="#2d3f50" d="M 0.972656 0.824219 L 67.769531 0.824219 L 67.769531 63.691406 L 0.972656 63.691406 Z M 0.972656 0.824219 " fill-opacity="1" fill-rule="nonzero"/></g></g></g></g></g></g><g clip-path="url(#f54a4ea14a)"><g clip-path="url(#26cf2a9601)"><path stroke-linecap="butt" transform="matrix(0.75, 0, 0, 0.75, 116.974077, 220.825255)" fill="none" stroke-linejoin="miter" d="M 22.998107 -0.0013818 L 66.097069 -0.0013818 C 78.794986 -0.0013818 89.091862 10.295494 89.091862 22.99862 L 89.091862 60.816331 C 89.091862 73.514248 78.794986 83.811124 66.097069 83.811124 L 22.998107 83.811124 C 10.30019 83.811124 0.00331424 73.514248 0.00331424 60.816331 L 0.00331424 22.99862 C 0.00331424 10.295494 10.30019 -0.0013818 22.998107 -0.0013818 Z M 22.998107 -0.0013818 " stroke="#f168fd" stroke-width="8" stroke-opacity="1" stroke-miterlimit="4"/></g></g><g clip-path="url(#bfea4ca7f6)"><g clip-path="url(#c4665fa44d)"><g transform="matrix(1, 0, 0, 1, 30, 91)"><g clip-path="url(#4a4c5fc595)"><g clip-path="url(#b46a60500d)"><g clip-path="url(#2893437c75)"><path fill="#2d3f50" d="M 0.113281 0.308594 L 78.917969 0.308594 L 78.917969 192.699219 L 0.113281 192.699219 Z M 0.113281 0.308594 " fill-opacity="1" fill-rule="nonzero"/></g></g></g></g></g></g><g clip-path="url(#d31d7c1513)"><g clip-path="url(#7ac6eaadf8)"><path stroke-linecap="butt" transform="matrix(0.75, 0, 0, 0.75, 30.113574, 91.308356)" fill="none" stroke-linejoin="miter" d="M 22.999612 0.00552479 L 82.062116 0.00552479 C 94.765241 0.00552479 105.062117 10.3024 105.062117 23.005526 L 105.062117 233.495123 C 105.062117 246.198249 94.765241 256.495125 82.062116 256.495125 L 22.999612 256.495125 C 10.296486 256.495125 -0.000389857 246.198249 -0.000389857 233.495123 L -0.000389857 23.005526 C -0.000389857 10.3024 10.296486 0.00552479 22.999612 0.00552479 Z M 22.999612 0.00552479 " stroke="#f168fd" stroke-width="8" stroke-opacity="1" stroke-miterlimit="4"/></g></g><g clip-path="url(#273539bb9c)"><g clip-path="url(#adb97e270b)"><g transform="matrix(1, 0, 0, 1, 266, 91)"><g clip-path="url(#135731b7fc)"><g clip-path="url(#f2110fc500)"><g clip-path="url(#7f60b02989)"><path fill="#2d3f50" d="M 0.0820312 0.308594 L 78.886719 0.308594 L 78.886719 192.699219 L 0.0820312 192.699219 Z M 0.0820312 0.308594 " fill-opacity="1" fill-rule="nonzero"/></g></g></g></g></g></g><g clip-path="url(#bd00433b54)"><g clip-path="url(#ae66b5fc59)"><path stroke-linecap="butt" transform="matrix(0.75, 0, 0, 0.75, 266.082642, 91.308356)" fill="none" stroke-linejoin="miter" d="M 22.999187 0.00552479 L 82.066899 0.00552479 C 94.764817 0.00552479 105.061692 10.3024 105.061692 23.005526 L 105.061692 233.495123 C 105.061692 246.198249 94.764817 256.495125 82.066899 256.495125 L 22.999187 256.495125 C 10.296061 256.495125 -0.000814636 246.198249 -0.000814636 233.495123 L -0.000814636 23.005526 C -0.000814636 10.3024 10.296061 0.00552479 22.999187 0.00552479 Z M 22.999187 0.00552479 " stroke="#f168fd" stroke-width="8" stroke-opacity="1" stroke-miterlimit="4"/></g></g><g clip-path="url(#79618fcc3f)"><g clip-path="url(#c9e2698e7e)"><g transform="matrix(1, 0, 0, 1, 191, 220)"><g clip-path="url(#7672b67685)"><g clip-path="url(#2a8c9d61ea)"><g clip-path="url(#4cbc2b8805)"><path fill="#2d3f50" d="M 0.855469 0.824219 L 67.652344 0.824219 L 67.652344 63.691406 L 0.855469 63.691406 Z M 0.855469 0.824219 " fill-opacity="1" fill-rule="nonzero"/></g></g></g></g></g></g><g clip-path="url(#2e7746977a)"><g clip-path="url(#664e46c95f)"><path stroke-linecap="butt" transform="matrix(0.75, 0, 0, 0.75, 191.856525, 220.825255)" fill="none" stroke-linejoin="miter" d="M 22.998594 -0.0013818 L 66.097555 -0.0013818 C 78.795472 -0.0013818 89.092348 10.295494 89.092348 22.99862 L 89.092348 60.816331 C 89.092348 73.514248 78.795472 83.811124 66.097555 83.811124 L 22.998594 83.811124 C 10.295468 83.811124 0.0038004 73.514248 0.0038004 60.816331 L 0.0038004 22.99862 C 0.0038004 10.295494 10.295468 -0.0013818 22.998594 -0.0013818 Z M 22.998594 -0.0013818 " stroke="#f168fd" stroke-width="8" stroke-opacity="1" stroke-miterlimit="4"/></g></g></svg>